<svg version="1.1" id="Layer_1" xmlns="http://www.w3.org/2000/svg" xmlns:xlink="http://www.w3.org/1999/xlink" x="0px" y="0px"
	 width="100%" viewBox="0 0 300 300" enable-background="new 0 0 300 300" xml:space="preserve">
<path fill="#000000" opacity="1.000000" stroke="none" 
	d="
M171.000000,301.000000 
	C114.000008,301.000000 57.500019,301.000000 1.000023,301.000000 
	C1.000015,201.000031 1.000015,101.000053 1.000008,1.000063 
	C100.999947,1.000042 200.999893,1.000042 300.999878,1.000021 
	C300.999939,100.999939 300.999939,200.999878 300.999969,300.999908 
	C257.833344,301.000000 214.666672,301.000000 171.000000,301.000000 
M231.635544,103.761230 
	C231.467865,102.822983 231.300186,101.884735 230.843338,100.306877 
	C230.709976,99.186394 230.605026,98.061668 230.438507,96.946129 
	C229.530960,90.866699 228.736801,84.765511 227.607925,78.727074 
	C227.292938,77.042107 225.973816,75.544853 225.001556,73.228317 
	C221.038559,67.849426 216.065903,67.511826 211.161896,72.319023 
	C201.455032,81.834290 191.761124,91.362770 181.796661,100.234131 
	C179.863495,96.794762 177.920502,93.360870 175.999390,89.914780 
	C172.741547,84.070862 169.351334,78.294548 166.289612,72.349289 
	C163.337646,66.617180 160.745438,60.700348 157.965424,54.878883 
	C156.806107,52.451267 151.188614,51.264633 148.577881,51.562660 
	C143.055664,52.193050 143.572617,57.515327 141.204819,60.436977 
	C138.580109,63.675652 137.914505,68.426552 135.760086,72.151253 
	C134.541000,74.258934 132.045227,75.628166 129.620743,77.776337 
	C129.238068,75.271606 129.331314,74.194839 128.910339,73.385597 
	C124.317497,64.556801 119.656364,55.763309 114.934029,47.003220 
	C114.792908,46.741436 113.780823,46.949177 113.046898,46.187183 
	C109.640266,38.950855 106.241859,31.710550 102.760811,24.510201 
	C102.698875,24.382099 101.645889,24.733122 101.047073,24.951195 
	C101.047073,24.951195 101.137970,24.955313 101.044823,24.182217 
	C100.050713,22.102213 98.753395,20.109592 98.123695,17.924568 
	C96.677155,12.905074 92.728455,12.498857 88.820168,13.102516 
	C85.253448,13.653417 82.775284,16.162611 82.026390,20.938263 
	C81.441185,28.744352 83.053780,36.617199 78.796738,44.247314 
	C76.720177,47.969250 77.614937,53.348957 77.014565,58.791294 
	C78.095085,64.674385 77.714897,70.289902 74.364616,75.512566 
	C73.823441,76.356194 74.147034,77.740471 74.025314,78.869919 
	C73.663612,82.226273 73.279182,85.580177 72.177643,89.400558 
	C73.566376,99.032623 67.796707,107.775406 68.808235,117.474632 
	C69.194405,121.177513 67.663391,125.081749 66.995163,128.892303 
	C66.800568,130.001953 66.442184,131.097336 66.374588,132.212341 
	C66.051849,137.536041 61.882545,142.320740 64.018288,148.837524 
	C63.341457,152.322845 62.531403,155.788574 62.015266,159.297531 
	C60.909557,166.814651 60.142746,174.385345 58.890404,181.876144 
	C57.455868,190.456757 55.646297,198.974670 53.997974,207.519516 
	C53.389824,210.672134 52.776878,213.823837 52.012123,217.887421 
	C51.667889,223.251144 51.323658,228.614853 51.000000,234.000000 
	C51.000000,234.000000 50.981472,233.976822 50.491890,234.132156 
	C50.425064,234.224518 50.296154,234.322571 50.303978,234.408112 
	C50.321781,234.602646 50.406750,234.791031 50.772045,235.576477 
	C53.745510,239.366013 57.768410,241.535767 62.070415,243.550812 
	C65.628479,245.217377 68.643021,248.008438 72.118179,249.896759 
	C76.763832,252.421036 81.676880,254.448303 86.374466,256.883148 
	C91.987030,259.792267 97.488556,262.915253 103.052979,265.918182 
	C103.599213,266.212952 104.603783,266.141418 104.796875,266.534241 
	C107.244858,271.514191 113.125946,271.319366 116.863770,274.606110 
	C120.346992,277.668976 125.653191,278.564331 129.505234,281.323547 
	C135.675369,285.743256 142.328583,287.914490 149.758316,289.092804 
	C159.477615,290.634247 165.650482,282.928986 173.934998,280.974365 
	C174.220779,280.906921 174.677658,280.677795 174.694977,280.490692 
	C175.019623,276.982300 177.906494,277.523407 180.133240,276.934448 
	C181.360519,276.609802 183.431793,276.153015 183.543365,275.490021 
	C184.126663,272.023834 186.885178,272.566895 189.077286,271.941772 
	C190.304733,271.591797 192.390076,271.200623 192.513748,270.535217 
	C193.204559,266.818237 196.054398,267.356628 198.531540,266.904663 
	C199.623688,266.705444 200.722122,266.211700 201.673218,265.619537 
	C210.514709,260.114777 219.223923,254.389648 228.177383,249.075287 
	C234.717728,245.193268 241.606369,241.902390 248.258270,238.201569 
	C250.573700,236.913406 252.740463,235.456223 251.177368,231.938843 
	C250.279984,229.919510 250.319199,227.468658 250.022400,225.200867 
	C249.357498,220.120575 248.746155,215.033279 248.257278,209.247040 
	C247.836807,207.215073 247.416351,205.183105 247.590088,202.806046 
	C247.431198,201.847748 247.272308,200.889465 246.827774,199.295227 
	C246.251404,197.172806 245.675018,195.050369 245.006256,192.155151 
	C244.616409,190.429092 244.226562,188.703033 243.972137,186.222717 
	C243.922241,183.113800 243.872345,180.004883 243.959244,176.217529 
	C243.332138,174.844025 242.705032,173.470520 242.682648,171.778351 
	C241.061157,162.097778 237.033646,152.996841 237.590073,142.704147 
	C237.918106,136.636322 235.024719,130.403687 233.647446,124.230156 
	C233.028946,121.457832 232.575348,118.648727 232.019394,115.272018 
	C232.037598,114.882828 232.055786,114.493629 232.692917,113.802757 
	C232.736099,112.167152 232.779282,110.531540 232.959244,108.211884 
	C232.314026,106.827530 231.668793,105.443176 231.040344,104.062630 
	C231.040344,104.062630 231.048294,104.079636 231.635544,103.761230 
z"/>
<path fill="#FEC92B" opacity="1.000000" stroke="none" 
	d="
M243.836700,186.976974 
	C244.226562,188.703033 244.616409,190.429092 244.807861,192.841248 
	C245.092636,198.198593 245.484756,202.882690 246.139343,207.529785 
	C246.263519,208.411331 247.428329,209.146255 248.113007,209.948837 
	C248.746155,215.033279 249.357498,220.120575 250.022400,225.200867 
	C250.319199,227.468658 250.279984,229.919510 251.177368,231.938843 
	C252.740463,235.456223 250.573700,236.913406 248.258270,238.201569 
	C241.606369,241.902390 234.717728,245.193268 228.177383,249.075287 
	C219.223923,254.389648 210.514709,260.114777 201.673218,265.619537 
	C200.722122,266.211700 199.623688,266.705444 198.531540,266.904663 
	C196.054398,267.356628 193.204559,266.818237 192.513748,270.535217 
	C192.390076,271.200623 190.304733,271.591797 189.077286,271.941772 
	C186.885178,272.566895 184.126663,272.023834 183.543365,275.490021 
	C183.431793,276.153015 181.360519,276.609802 180.133240,276.934448 
	C177.906494,277.523407 175.019623,276.982300 174.694977,280.490692 
	C174.677658,280.677795 174.220779,280.906921 173.934998,280.974365 
	C165.650482,282.928986 159.477615,290.634247 149.758316,289.092804 
	C142.328583,287.914490 135.675369,285.743256 129.505234,281.323547 
	C125.653191,278.564331 120.346992,277.668976 116.863770,274.606110 
	C113.125946,271.319366 107.244858,271.514191 104.796875,266.534241 
	C104.603783,266.141418 103.599213,266.212952 103.052979,265.918182 
	C97.488556,262.915253 91.987030,259.792267 86.374466,256.883148 
	C81.676880,254.448303 76.763832,252.421036 72.118179,249.896759 
	C68.643021,248.008438 65.628479,245.217377 62.070415,243.550812 
	C57.768410,241.535767 53.745510,239.366013 50.771767,235.153976 
	C50.922020,234.502335 50.992012,234.250778 50.981472,233.976822 
	C50.981472,233.976822 51.000000,234.000000 51.253204,234.026764 
	C51.683231,234.068481 51.860050,234.083435 52.277878,234.301392 
	C53.342400,234.656509 54.165913,234.808624 55.170174,235.247650 
	C57.901245,237.022888 60.451572,238.511230 63.238098,240.244110 
	C74.705093,246.638733 86.200554,252.364182 97.049797,259.126404 
	C102.116020,262.284149 104.602623,261.057617 108.258659,257.380219 
	C146.663681,218.750626 185.233917,180.285324 223.722504,141.738663 
	C226.587234,138.869629 230.360764,136.541107 230.351456,131.639313 
	C230.350418,131.094162 232.079819,130.545700 233.081909,130.392792 
	C234.113358,136.317078 234.997025,141.861115 236.042892,147.374374 
	C237.604248,155.605103 239.279907,163.814133 240.920792,172.402405 
	C240.950150,173.514175 240.965637,174.255936 240.981140,175.428696 
	C241.933014,179.565460 242.884857,183.271225 243.836700,186.976974 
z"/>
<path fill="#FFCB2E" opacity="1.000000" stroke="none" 
	d="
M233.006714,129.998779 
	C232.079819,130.545700 230.350418,131.094162 230.351456,131.639313 
	C230.360764,136.541107 226.587234,138.869629 223.722504,141.738663 
	C185.233917,180.285324 146.663681,218.750626 108.258659,257.380219 
	C104.602623,261.057617 102.116020,262.284149 97.049797,259.126404 
	C86.200554,252.364182 74.705093,246.638733 63.523746,240.074829 
	C64.438492,238.884201 65.342407,238.146027 66.163567,237.325073 
	C116.776566,186.724380 167.385727,136.119843 217.979218,85.499649 
	C220.076950,83.400826 222.022263,81.149673 224.262787,79.285797 
	C225.637207,85.795044 226.720337,92.001625 227.976166,98.173058 
	C228.383682,100.175735 229.243164,102.086433 229.909653,104.406082 
	C229.934616,105.508217 229.945847,106.243469 229.784973,107.258560 
	C230.433243,109.727081 231.253601,111.915756 232.073975,114.104439 
	C232.055786,114.493629 232.037598,114.882828 231.821014,115.857849 
	C231.750687,118.962051 231.878723,121.480415 231.663544,124.023926 
	C230.661377,124.605728 230.002472,125.162376 229.343567,125.719009 
	C230.244537,126.473404 231.145508,127.227798 232.244766,128.189209 
	C232.630936,128.930420 232.818817,129.464600 233.006714,129.998779 
z"/>
<path fill="#FEA40D" opacity="1.000000" stroke="none" 
	d="
M52.036873,234.098389 
	C51.860050,234.083435 51.683231,234.068481 51.242920,234.016052 
	C51.323658,228.614853 51.667889,223.251144 52.460075,217.390259 
	C53.586140,216.080902 54.688049,215.353317 54.869930,214.442078 
	C55.714474,210.210846 56.299133,205.927933 56.985756,201.664963 
	C59.652332,185.109299 62.322319,168.554153 65.370796,151.995270 
	C67.600662,151.060379 69.855583,150.530045 71.237495,149.134918 
	C83.495712,136.759705 96.406792,124.899918 107.480507,111.526192 
	C115.618561,101.697853 121.291061,89.827980 128.299759,79.106171 
	C129.046738,80.578415 129.556290,81.812378 130.031036,83.414459 
	C129.417221,85.329292 128.996124,86.958702 128.235779,88.410446 
	C114.506714,114.624176 100.768089,140.833023 86.963158,167.006851 
	C79.286560,181.561478 71.388023,195.999649 63.780266,210.589767 
	C59.958122,217.919846 56.562180,225.472168 52.846916,233.141663 
	C52.492508,233.605698 52.264690,233.852051 52.036873,234.098389 
z"/>
<path fill="#FFA815" opacity="1.000000" stroke="none" 
	d="
M72.903625,88.935043 
	C73.279182,85.580177 73.663612,82.226273 74.025314,78.869919 
	C74.147034,77.740471 73.823441,76.356194 74.364616,75.512566 
	C77.714897,70.289902 78.095085,64.674385 77.461472,58.343204 
	C78.565857,57.248089 79.699593,56.672985 79.809784,55.943310 
	C81.618637,43.965389 83.298401,31.967974 85.089317,19.636265 
	C89.255119,13.491948 93.584595,13.770070 97.030487,19.882601 
	C98.084030,21.751432 99.751602,23.274109 101.137970,24.955311 
	C101.137970,24.955313 101.047073,24.951195 101.034302,25.291447 
	C104.687012,32.763332 108.352493,39.894966 112.078003,47.371128 
	C113.391777,50.154270 114.645531,52.592888 115.617661,55.123352 
	C114.660706,57.068199 114.491539,59.423153 113.230217,60.695015 
	C102.856117,71.155861 92.217041,81.353546 81.810989,91.783363 
	C79.461136,94.138588 77.236427,95.470970 73.996979,93.611626 
	C73.630882,91.794052 73.267258,90.364548 72.903625,88.935043 
z"/>
<path fill="#EEAC3B" opacity="1.000000" stroke="none" 
	d="
M115.899284,55.031506 
	C114.645531,52.592888 113.391777,50.154270 112.367050,47.347893 
	C112.788986,46.966084 112.981895,46.952045 113.174812,46.938004 
	C113.780823,46.949177 114.792908,46.741436 114.934029,47.003220 
	C119.656364,55.763309 124.317497,64.556801 128.910339,73.385597 
	C129.331314,74.194839 129.238068,75.271606 129.620743,77.776337 
	C132.045227,75.628166 134.541000,74.258934 135.760086,72.151253 
	C137.914505,68.426552 138.580109,63.675652 141.204819,60.436977 
	C143.572617,57.515327 143.055664,52.193050 148.577881,51.562660 
	C151.188614,51.264633 156.806107,52.451267 157.965424,54.878883 
	C160.745438,60.700348 163.337646,66.617180 166.289612,72.349289 
	C169.351334,78.294548 172.741547,84.070862 175.999390,89.914780 
	C177.920502,93.360870 179.863495,96.794762 181.867538,100.935371 
	C181.852951,102.137054 181.767487,102.637497 181.391785,103.001343 
	C179.563553,100.530594 177.831268,98.300179 176.520187,95.844856 
	C169.798508,83.256790 163.232285,70.585739 156.511429,57.997238 
	C153.762177,52.847794 148.679260,52.314388 146.071945,57.064514 
	C141.768402,64.904846 137.911804,72.990494 133.631195,81.127228 
	C132.934448,81.871902 132.473328,82.462097 131.687332,83.054565 
	C130.930252,83.053345 130.498047,83.049843 130.065826,83.046341 
	C129.556290,81.812378 129.046738,80.578415 128.225769,78.765038 
	C123.909332,70.467583 119.904305,62.749546 115.899284,55.031506 
z"/>
<path fill="#FFDE5C" opacity="1.000000" stroke="none" 
	d="
M181.682007,103.137939 
	C181.767487,102.637497 181.852951,102.137054 182.000137,101.261200 
	C191.761124,91.362770 201.455032,81.834290 211.161896,72.319023 
	C216.065903,67.511826 221.038559,67.849426 224.776535,73.607483 
	C224.363602,73.995468 224.175674,74.004288 223.675537,73.811584 
	C220.899384,73.090508 218.435455,72.570961 215.773193,72.171005 
	C215.328964,72.487068 215.134476,72.725502 214.755219,73.235077 
	C211.035278,76.796783 207.537064,80.114365 204.070709,83.464912 
	C196.666718,90.621590 189.279205,97.795341 181.851395,104.657715 
	C181.772568,103.948204 181.727280,103.543068 181.682007,103.137939 
z"/>
<path fill="#FFB32D" opacity="1.000000" stroke="none" 
	d="
M64.991035,151.998825 
	C62.322319,168.554153 59.652332,185.109299 56.985756,201.664963 
	C56.299133,205.927933 55.714474,210.210846 54.869930,214.442078 
	C54.688049,215.353317 53.586140,216.080902 52.537071,216.934509 
	C52.776878,213.823837 53.389824,210.672134 53.997974,207.519516 
	C55.646297,198.974670 57.455868,190.456757 58.890404,181.876144 
	C60.142746,174.385345 60.909557,166.814651 62.015266,159.297531 
	C62.531403,155.788574 63.341457,152.322845 64.302094,148.419586 
	C64.585907,148.001633 65.007553,148.002045 65.007706,148.401703 
	C65.002243,149.867172 64.996643,150.932999 64.991035,151.998825 
z"/>
<path fill="#FFB531" opacity="1.000000" stroke="none" 
	d="
M65.007553,148.002045 
	C65.007553,148.002045 64.585907,148.001633 64.375084,148.001678 
	C61.882545,142.320740 66.051849,137.536041 66.374588,132.212341 
	C66.442184,131.097336 66.800568,130.001953 66.995163,128.892303 
	C67.663391,125.081749 69.194405,121.177513 68.808235,117.474632 
	C67.796707,107.775406 73.566376,99.032623 72.540634,89.167801 
	C73.267258,90.364548 73.630882,91.794052 73.917435,94.008888 
	C73.555771,96.416206 73.257271,98.035889 72.988754,99.660530 
	C70.325523,115.773903 67.667236,131.888092 65.007553,148.002045 
z"/>
<path fill="#FFD646" opacity="1.000000" stroke="none" 
	d="
M233.081894,130.392792 
	C232.818817,129.464600 232.630936,128.930420 232.236938,127.791397 
	C232.022812,126.123970 232.014786,125.061371 232.006775,123.998779 
	C231.878723,121.480415 231.750687,118.962051 231.834793,116.150002 
	C232.575348,118.648727 233.028946,121.457832 233.647446,124.230156 
	C235.024719,130.403687 237.918106,136.636322 237.590073,142.704147 
	C237.033646,152.996841 241.061157,162.097778 242.088165,171.914368 
	C241.298096,172.044403 241.102509,172.038391 240.906921,172.032379 
	C239.279907,163.814133 237.604248,155.605103 236.042892,147.374374 
	C234.997025,141.861115 234.113358,136.317078 233.081894,130.392792 
z"/>
<path fill="#FFB531" opacity="1.000000" stroke="none" 
	d="
M85.007179,19.974941 
	C83.298401,31.967974 81.618637,43.965389 79.809784,55.943310 
	C79.699593,56.672985 78.565857,57.248089 77.536552,57.936695 
	C77.614937,53.348957 76.720177,47.969250 78.796738,44.247314 
	C83.053780,36.617199 81.441185,28.744352 82.443817,20.468979 
	C83.576553,19.991446 84.291862,19.983192 85.007179,19.974941 
z"/>
<path fill="#FFD646" opacity="1.000000" stroke="none" 
	d="
M223.987762,74.013107 
	C224.175674,74.004288 224.363602,73.995468 224.833420,73.974068 
	C225.973816,75.544853 227.292938,77.042107 227.607925,78.727074 
	C228.736801,84.765511 229.530960,90.866699 230.438507,96.946129 
	C230.605026,98.061668 230.709976,99.186394 230.962982,101.016617 
	C231.071198,102.510788 231.059738,103.295212 231.048294,104.079636 
	C231.048294,104.079636 231.040344,104.062630 230.750229,104.049309 
	C230.272049,104.037064 230.083969,104.038132 229.895905,104.039200 
	C229.243164,102.086433 228.383682,100.175735 227.976166,98.173058 
	C226.720337,92.001625 225.637207,85.795044 224.256195,78.873749 
	C224.012848,76.767952 224.000305,75.390526 223.987762,74.013107 
z"/>
<path fill="#F0B144" opacity="1.000000" stroke="none" 
	d="
M85.089317,19.636263 
	C84.291862,19.983192 83.576553,19.991446 82.503769,20.005257 
	C82.775284,16.162611 85.253448,13.653417 88.820168,13.102516 
	C92.728455,12.498857 96.677155,12.905074 98.123695,17.924568 
	C98.753395,20.109592 100.050713,22.102213 101.091400,24.568764 
	C99.751602,23.274109 98.084030,21.751432 97.030487,19.882601 
	C93.584595,13.770070 89.255119,13.491948 85.089317,19.636263 
z"/>
<path fill="#F0B144" opacity="1.000000" stroke="none" 
	d="
M113.110855,46.562592 
	C112.981895,46.952045 112.788986,46.966084 112.307030,47.003365 
	C108.352493,39.894966 104.687012,32.763332 101.038437,25.246140 
	C101.645889,24.733122 102.698875,24.382099 102.760811,24.510201 
	C106.241859,31.710550 109.640266,38.950855 113.110855,46.562592 
z"/>
<path fill="#FFD34D" opacity="1.000000" stroke="none" 
	d="
M248.185135,209.597931 
	C247.428329,209.146255 246.263519,208.411331 246.139343,207.529785 
	C245.484756,202.882690 245.092636,198.198593 244.854050,193.227646 
	C245.675018,195.050369 246.251404,197.172806 246.946625,200.013672 
	C247.042282,201.538452 247.019089,202.344803 246.995880,203.151138 
	C247.416351,205.183105 247.836807,207.215073 248.185135,209.597931 
z"/>
<path fill="#FFD646" opacity="1.000000" stroke="none" 
	d="
M243.904419,186.599854 
	C242.884857,183.271225 241.933014,179.565460 241.268234,175.491730 
	C242.311020,175.714508 243.066727,176.305237 243.822449,176.895966 
	C243.872345,180.004883 243.922241,183.113800 243.904419,186.599854 
z"/>
<path fill="#FFD646" opacity="1.000000" stroke="none" 
	d="
M232.383453,113.953598 
	C231.253601,111.915756 230.433243,109.727081 230.074524,107.326019 
	C231.298264,107.707741 232.060349,108.301842 232.822449,108.895935 
	C232.779282,110.531540 232.736099,112.167152 232.383453,113.953598 
z"/>
<path fill="#FFD34D" opacity="1.000000" stroke="none" 
	d="
M243.890839,176.556747 
	C243.066727,176.305237 242.311020,175.714508 241.268219,175.060730 
	C240.965637,174.255936 240.950150,173.514175 240.920807,172.402405 
	C241.102509,172.038391 241.298096,172.044403 241.785797,172.073700 
	C242.705032,173.470520 243.332138,174.844025 243.890839,176.556747 
z"/>
<path fill="#FFD34D" opacity="1.000000" stroke="none" 
	d="
M232.890839,108.553909 
	C232.060349,108.301842 231.298264,107.707741 230.246613,107.046173 
	C229.945847,106.243469 229.934616,105.508217 229.909637,104.406090 
	C230.083969,104.038132 230.272049,104.037064 230.741837,104.047401 
	C231.668793,105.443176 232.314026,106.827530 232.890839,108.553909 
z"/>
<path fill="#FFB32D" opacity="1.000000" stroke="none" 
	d="
M247.292984,202.978592 
	C247.019089,202.344803 247.042282,201.538452 247.089447,200.331635 
	C247.272308,200.889465 247.431198,201.847748 247.292984,202.978592 
z"/>
<path fill="#FFB32D" opacity="1.000000" stroke="none" 
	d="
M231.341919,103.920433 
	C231.059738,103.295212 231.071198,102.510788 231.107574,101.336426 
	C231.300186,101.884735 231.467865,102.822983 231.341919,103.920433 
z"/>
<path fill="#FEA40D" opacity="1.000000" stroke="none" 
	d="
M50.736679,234.054489 
	C50.992012,234.250778 50.922020,234.502335 50.617958,234.856689 
	C50.406750,234.791031 50.321781,234.602646 50.303978,234.408112 
	C50.296154,234.322571 50.425064,234.224518 50.736679,234.054489 
z"/>
<path fill="#FFCC30" opacity="1.000000" stroke="none" 
	d="
M223.675537,73.811584 
	C224.000305,75.390526 224.012848,76.767952 224.031982,78.557426 
	C222.022263,81.149673 220.076950,83.400826 217.979218,85.499649 
	C167.385727,136.119843 116.776566,186.724380 66.163567,237.325073 
	C65.342407,238.146027 64.438492,238.884201 63.287552,239.830276 
	C60.451572,238.511230 57.901245,237.022888 55.168709,234.865067 
	C54.972866,233.428528 54.959236,232.661484 54.970455,231.915939 
	C54.995304,231.937439 54.954063,231.988480 55.161888,231.854034 
	C55.630070,231.508133 55.836376,231.252975 55.979546,230.978683 
	C55.970455,231.003265 55.946400,230.956680 56.318764,230.951614 
	C57.779835,229.613327 58.868542,228.280121 59.980400,226.959045 
	C60.003548,226.971207 59.954353,226.988861 60.162132,226.854355 
	C60.630238,226.508362 60.836578,226.253235 60.980038,225.979004 
	C60.971130,226.003540 60.946861,225.957291 61.319199,225.952057 
	C62.780140,224.613510 63.868748,223.280182 64.980469,221.959137 
	C65.003586,221.971405 64.954300,221.988953 65.162094,221.854401 
	C65.630234,221.508362 65.836601,221.253204 65.980103,220.978989 
	C65.971207,221.003571 65.946800,220.957321 66.319153,220.952087 
	C67.780075,219.613556 68.868652,218.280258 69.980370,216.959076 
	C70.003510,216.971191 69.954346,216.988800 70.162094,216.854340 
	C70.630150,216.508514 70.836426,216.253448 70.996025,215.979156 
	C71.003387,216.003662 70.954483,215.988586 71.162186,215.854248 
	C71.630127,215.508682 71.836273,215.253693 71.995758,214.979279 
	C72.003212,215.003601 71.954712,214.988220 72.162354,214.854095 
	C72.630196,214.508957 72.836121,214.254089 72.995392,213.979401 
	C73.003029,214.003448 72.955116,213.987671 73.162720,213.853821 
	C73.630432,213.509155 73.836105,213.254395 73.995125,212.979492 
	C74.002922,213.003311 73.955444,212.987244 74.163040,212.853607 
	C74.630684,212.509293 74.836151,212.254593 74.994949,211.979523 
	C75.002861,212.003189 74.955688,211.986969 75.163269,211.853455 
	C75.630852,211.509338 75.836197,211.254669 75.994881,210.979523 
	C76.002861,211.003113 75.955811,210.986832 76.163376,210.853363 
	C76.630928,210.509354 76.836227,210.254715 76.994850,209.979553 
	C77.002853,210.003113 76.955856,209.986801 77.163437,209.853363 
	C77.630966,209.509354 77.836235,209.254715 77.994843,208.979538 
	C78.002853,209.003082 77.955872,208.986786 78.163445,208.853348 
	C78.630966,208.509338 78.836235,208.254700 78.994858,207.979523 
	C79.002869,208.003082 78.955864,207.986801 79.163437,207.853333 
	C79.630943,207.509293 79.836227,207.254654 79.994865,206.979523 
	C80.002869,207.003082 79.955833,206.986816 80.163406,206.853333 
	C80.630898,206.509201 80.836212,206.254532 80.994904,205.979477 
	C81.002892,206.003098 80.955750,205.986877 81.163315,205.853317 
	C81.630791,205.509048 81.836159,205.254364 81.994965,204.979401 
	C82.002922,205.003098 81.955612,204.986984 82.163162,204.853302 
	C82.630615,204.508850 82.836075,204.254166 82.995010,203.979340 
	C83.002922,204.003113 82.955437,203.987076 83.162987,203.853317 
	C83.630447,203.508713 83.835983,203.253998 83.995041,202.979279 
	C84.002937,203.003128 83.955299,202.987122 84.162842,202.853302 
	C84.630325,202.508636 84.835907,202.253922 84.995033,201.979233 
	C85.002922,202.003128 84.955215,201.987122 85.162750,201.853271 
	C85.630234,201.508575 85.835846,201.253860 85.995026,200.979218 
	C86.002922,201.003128 85.955170,200.987106 86.162720,200.853271 
	C86.630234,200.508591 86.835854,200.253860 86.995018,199.979187 
	C87.002907,200.003113 86.955147,199.987091 87.162704,199.853256 
	C87.630234,199.508575 87.835861,199.253845 87.995026,198.979187 
	C88.002922,199.003113 87.955139,198.987106 88.162689,198.853241 
	C88.630219,198.508545 88.835854,198.253830 88.995041,197.979187 
	C89.002945,198.003128 88.955147,197.987122 89.162697,197.853271 
	C89.630211,197.508560 89.835846,197.253845 89.995033,196.979187 
	C90.002930,197.003128 89.955154,196.987106 90.162689,196.853256 
	C90.630219,196.508575 90.835838,196.253876 90.994995,195.979187 
	C91.002892,196.003113 90.955147,195.987076 91.162682,195.853241 
	C91.630188,195.508575 91.835793,195.253845 91.994934,194.979156 
	C92.002846,195.003082 91.955109,194.986984 92.162643,194.853180 
	C92.630112,194.508530 92.835686,194.253830 92.994827,193.979156 
	C93.002769,194.003052 92.955086,193.986832 93.162582,193.853058 
	C93.630028,193.508530 93.835541,193.253845 93.994659,192.979095 
	C94.002678,193.002945 93.955101,192.986572 94.162567,192.852890 
	C94.629944,192.508560 94.835350,192.253952 94.994415,191.979095 
	C95.002556,192.002823 94.955208,191.986221 95.162643,191.852646 
	C95.629913,191.508530 95.835220,191.253983 95.994232,190.979080 
	C96.002472,191.002716 95.955292,190.985931 96.162727,190.852478 
	C96.629997,190.508545 96.835213,190.254044 96.994110,189.979065 
	C97.002419,190.002625 96.955360,189.985748 97.162804,189.852356 
	C97.630066,189.508545 97.835220,189.254059 97.994064,188.979034 
	C98.002411,189.002563 97.955391,188.985672 98.162842,188.852325 
	C98.630119,188.508560 98.835243,188.254059 98.994064,187.979004 
	C99.002449,188.002548 98.955406,187.985657 99.162842,187.852295 
	C99.630096,187.508514 99.835228,187.254028 99.994064,186.979004 
	C100.002449,187.002533 99.955399,186.985657 100.162827,186.852295 
	C100.630058,186.508499 100.835197,186.254013 100.994049,185.979004 
	C101.002419,186.002548 100.955391,185.985657 101.162819,185.852264 
	C101.630035,185.508469 101.835182,185.253998 101.994049,184.979004 
	C102.002419,185.002548 101.955391,184.985657 102.162842,184.852295 
	C102.630074,184.508514 102.835213,184.254028 102.994064,183.979004 
	C103.002434,184.002548 102.955399,183.985657 103.162849,183.852310 
	C103.630112,183.508530 103.835236,183.254044 103.994064,182.979004 
	C104.002449,183.002548 103.955406,182.985657 104.162842,182.852295 
	C104.630089,182.508499 104.835220,182.254013 104.994064,181.979004 
	C105.002449,182.002533 104.955399,181.985657 105.162827,181.852295 
	C105.630058,181.508499 105.835197,181.254013 105.994049,180.979004 
	C106.002419,181.002548 105.955391,180.985657 106.162819,180.852295 
	C106.630043,180.508499 106.835190,180.254013 106.994057,179.979019 
	C107.002419,180.002563 106.955383,179.985657 107.162827,179.852295 
	C107.630074,179.508499 107.835213,179.254013 107.994064,178.979004 
	C108.002419,179.002548 107.955376,178.985672 108.162827,178.852295 
	C108.630081,178.508469 108.835228,178.253967 108.994095,177.978973 
	C109.002464,178.002548 108.955353,177.985718 109.162781,177.852280 
	C109.629974,177.508347 109.835175,177.253860 109.994148,176.978973 
	C110.002495,177.002579 109.955292,176.985794 110.162682,176.852264 
	C110.629799,176.508179 110.835068,176.253693 110.994194,175.978943 
	C111.002502,176.002594 110.955215,175.985870 111.162552,175.852234 
	C111.629585,175.507996 111.834930,175.253555 111.994217,174.978943 
	C112.002495,175.002640 111.955147,174.985916 112.162476,174.852234 
	C112.629471,174.507950 112.834854,174.253494 112.994202,173.978943 
	C113.002464,174.002640 112.955116,173.985901 113.162415,173.852203 
	C113.629372,173.507935 113.834755,173.253510 113.994125,172.978943 
	C114.002411,173.002640 113.955109,172.985794 114.162376,172.852142 
	C114.629295,172.507935 114.834633,172.253525 114.994003,171.978943 
	C115.002357,172.002609 114.955124,171.985580 115.162361,171.851974 
	C115.629204,171.507889 115.834450,171.253540 115.993790,170.978912 
	C116.002228,171.002502 115.955170,170.985275 116.162369,170.851746 
	C116.629105,170.507828 116.834267,170.253555 116.993607,169.978897 
	C117.002151,170.002396 116.955246,169.985016 117.162407,169.851562 
	C117.629059,169.507797 117.834145,169.253586 117.993469,168.978897 
	C118.002098,169.002319 117.955338,168.984787 118.162468,168.851410 
	C118.629059,168.507797 118.834084,168.253632 118.993378,167.978912 
	C119.002075,168.002274 118.955452,167.984634 119.162567,167.851318 
	C119.629120,167.507828 119.834091,167.253708 119.993332,166.978943 
	C120.002090,167.002228 119.955559,166.984558 120.162659,166.851273 
	C120.629166,166.507828 120.834099,166.253738 120.993317,165.978943 
	C121.002075,166.002213 120.955612,165.984528 121.162704,165.851257 
	C121.629173,165.507782 121.834091,165.253677 121.993324,164.978928 
	C122.002090,165.002197 121.955589,164.984543 122.162689,164.851242 
	C122.629173,164.507751 122.834106,164.253647 122.993332,163.978912 
	C123.002083,164.002213 122.955551,163.984558 123.162659,163.851257 
	C123.629166,163.507797 123.834106,163.253677 123.993332,162.978928 
	C124.002090,163.002228 123.955551,162.984558 124.162659,162.851273 
	C124.629181,162.507828 124.834114,162.253708 124.993324,161.978943 
	C125.002090,162.002213 124.955589,161.984528 125.162689,161.851257 
	C125.629166,161.507812 125.834084,161.253723 125.993317,160.978943 
	C126.002083,161.002213 125.955612,160.984512 126.162712,160.851242 
	C126.629181,160.507782 126.834099,160.253677 126.993324,159.978928 
	C127.002090,160.002197 126.955589,159.984543 127.162689,159.851242 
	C127.629173,159.507751 127.834106,159.253647 127.993347,158.978943 
	C128.002121,159.002243 127.955551,158.984558 128.162659,158.851257 
	C128.629135,158.507751 128.834091,158.253647 128.993347,157.978943 
	C129.002106,158.002258 128.955551,157.984558 129.162659,157.851257 
	C129.629135,157.507797 129.834061,157.253693 129.993332,156.978958 
	C130.002106,157.002243 129.955597,156.984528 130.162689,156.851257 
	C130.629196,156.507812 130.834106,156.253723 130.993317,155.978973 
	C131.002106,156.002243 130.955612,155.984512 131.162720,155.851257 
	C131.629196,155.507797 131.834106,155.253693 131.993347,154.978943 
	C132.002136,155.002228 131.955597,154.984543 132.162704,154.851257 
	C132.629166,154.507751 132.834091,154.253632 132.993347,153.978943 
	C133.002106,154.002258 132.955551,153.984558 133.162659,153.851257 
	C133.629150,153.507767 133.834076,153.253662 133.993332,152.978943 
	C134.002090,153.002258 133.955551,152.984543 134.162659,152.851273 
	C134.629135,152.507843 134.834045,152.253754 134.993271,151.978989 
	C135.002060,152.002258 134.955612,151.984436 135.162689,151.851227 
	C135.629120,151.507919 135.833954,151.253860 135.993134,150.979034 
	C136.001984,151.002228 135.955704,150.984253 136.162766,150.851135 
	C136.629135,150.507980 136.833862,150.253967 136.992920,149.979065 
	C137.001846,150.002182 136.955780,149.983963 137.162781,149.850952 
	C137.629059,149.508011 137.833679,149.254059 137.990143,148.981506 
	C137.996628,149.006958 137.948090,148.986938 138.156952,148.822388 
	C138.590271,148.186188 138.814728,147.714539 139.063171,147.179047 
	C139.087189,147.115204 139.183426,147.018539 139.527878,146.993561 
	C145.571182,141.299057 151.270035,135.629547 156.983459,129.980850 
	C156.998016,130.001663 156.958298,129.969025 157.292007,129.913757 
	C158.408981,128.885605 159.192230,127.912704 160.138794,126.669228 
	C161.535828,125.264748 162.769562,124.130844 164.255295,122.852921 
	C164.992035,122.123497 165.476776,121.538094 165.969025,120.958313 
	C165.976517,120.963921 165.975967,120.968483 166.175980,120.840164 
	C166.626404,120.509132 166.823944,120.263824 166.983398,119.986900 
	C166.998169,119.997864 166.975815,119.968590 167.175812,119.840141 
	C167.626205,119.508888 167.823853,119.263573 167.983459,118.986954 
	C167.998169,118.998169 167.975632,118.968712 168.175598,118.840118 
	C168.625946,118.508644 168.823715,118.263336 168.983505,117.986877 
	C168.998169,117.998169 168.975464,117.968811 169.175400,117.840118 
	C169.625702,117.508476 169.823563,117.263176 169.983551,116.986839 
	C169.998199,116.998169 169.975372,116.968857 170.175293,116.840103 
	C170.625565,116.508369 170.823471,116.263077 170.983765,115.986893 
	C170.998596,115.998314 170.975311,115.968880 171.175217,115.840096 
	C171.625504,115.508331 171.823441,115.263039 171.983871,114.986916 
	C171.998779,114.998390 171.975296,114.968903 172.175201,114.840103 
	C172.625504,114.508331 172.823471,114.263039 172.983887,113.986923 
	C172.998779,113.998428 172.975266,113.968933 173.175171,113.840134 
	C173.625488,113.508347 173.823456,113.263039 173.983887,112.986923 
	C173.998779,112.998428 173.975266,112.968933 174.175186,112.840141 
	C174.625473,112.508347 174.823425,112.263046 174.983887,111.986900 
	C174.998779,111.998352 174.975281,111.968903 175.175201,111.840118 
	C175.625504,111.508369 175.823456,111.263069 175.983841,110.986908 
	C175.998734,110.998360 175.975296,110.968887 176.175217,110.840103 
	C176.625504,110.508339 176.823441,110.263046 176.983871,109.986908 
	C176.998779,109.998367 176.975281,109.968895 177.175186,109.840111 
	C177.625473,109.508347 177.823441,109.263054 177.983871,108.986900 
	C177.998779,108.998352 177.975281,108.968895 178.175171,108.840103 
	C178.625412,108.508369 178.823349,108.263107 178.983582,107.986847 
	C178.998291,107.998169 178.975342,107.968781 179.175171,107.840019 
	C179.625244,107.508331 179.823120,107.263138 179.983398,106.986832 
	C179.998169,106.997986 179.975464,106.968544 180.175201,106.839836 
	C180.625122,106.508286 180.822937,106.263184 180.983276,105.986656 
	C180.998184,105.997505 180.975174,105.968109 181.174072,105.840324 
	C181.622421,105.511185 181.819077,105.267281 181.941559,104.985672 
	C181.920151,104.990540 181.884949,104.962105 181.884949,104.962105 
	C189.279205,97.795341 196.666718,90.621590 204.070709,83.464912 
	C207.537064,80.114365 211.035278,76.796783 214.944031,73.102753 
	C215.608429,72.544983 215.809265,72.315048 215.971542,72.051414 
	C218.435455,72.570961 220.899384,73.090508 223.675537,73.811584 
z"/>
<path fill="#FFD34D" opacity="1.000000" stroke="none" 
	d="
M54.945610,231.894440 
	C54.959236,232.661484 54.972866,233.428528 54.987961,234.578156 
	C54.165913,234.808624 53.342400,234.656509 52.277878,234.301392 
	C52.264690,233.852051 52.492508,233.605698 53.098289,233.021194 
	C53.966034,232.420166 54.455822,232.157303 54.945610,231.894440 
z"/>
<path fill="#FEC92B" opacity="1.000000" stroke="none" 
	d="
M231.663544,124.023926 
	C232.014786,125.061371 232.022812,126.123970 232.038666,127.584381 
	C231.145508,127.227798 230.244537,126.473404 229.343567,125.719009 
	C230.002472,125.162376 230.661377,124.605728 231.663544,124.023926 
z"/>
<path fill="#F5820C" opacity="1.000000" stroke="none" 
	d="
M54.970459,231.915939 
	C54.455822,232.157303 53.966034,232.420166 53.224876,232.803497 
	C56.562180,225.472168 59.958122,217.919846 63.780266,210.589767 
	C71.388023,195.999649 79.286560,181.561478 86.963158,167.006851 
	C100.768089,140.833023 114.506714,114.624176 128.235779,88.410446 
	C128.996124,86.958702 129.417221,85.329292 130.031036,83.414459 
	C130.498047,83.049843 130.930252,83.053345 131.836273,83.361359 
	C139.033737,96.424271 145.695129,109.216240 152.539093,121.909782 
	C153.756790,124.168259 155.732574,126.017990 157.268829,128.370316 
	C157.105682,129.112457 157.031998,129.540741 156.958298,129.969025 
	C156.958298,129.969025 156.998016,130.001663 156.657288,130.071930 
	C150.605515,135.767654 144.894470,141.393097 139.183411,147.018524 
	C139.183426,147.018539 139.087189,147.115204 138.840652,147.332001 
	C138.378769,148.028168 138.163437,148.507553 137.948090,148.986938 
	C137.948090,148.986938 137.996628,149.006958 137.739334,149.059143 
	C137.306625,149.402206 137.131210,149.693085 136.955780,149.983963 
	C136.955780,149.983963 137.001846,150.002182 136.742538,150.057480 
	C136.307388,150.403275 136.131546,150.693756 135.955704,150.984253 
	C135.955704,150.984253 136.001984,151.002228 135.743011,151.057999 
	C135.307907,151.403992 135.131760,151.694214 134.955612,151.984436 
	C134.955612,151.984436 135.002060,152.002258 134.743286,152.058273 
	C134.308197,152.404373 134.131866,152.694458 133.955536,152.984543 
	C133.955551,152.984543 134.002090,153.002258 133.743408,153.058350 
	C133.308334,153.404495 133.131943,153.694519 132.955551,153.984558 
	C132.955551,153.984558 133.002106,154.002258 132.743423,154.058365 
	C132.308365,154.404495 132.131973,154.694519 131.955597,154.984543 
	C131.955597,154.984543 132.002136,155.002228 131.743439,155.058350 
	C131.308365,155.404465 131.131989,155.694489 130.955612,155.984512 
	C130.955612,155.984512 131.002106,156.002243 130.743408,156.058350 
	C130.308334,156.404480 130.131973,156.694504 129.955597,156.984528 
	C129.955597,156.984528 130.002106,157.002243 129.743408,157.058365 
	C129.308319,157.404510 129.131927,157.694534 128.955551,157.984558 
	C128.955551,157.984558 129.002106,158.002258 128.743439,158.058380 
	C128.308350,158.404510 128.131958,158.694534 127.955551,158.984558 
	C127.955551,158.984558 128.002121,159.002243 127.743439,159.058350 
	C127.308365,159.404495 127.131981,159.694519 126.955597,159.984543 
	C126.955589,159.984543 127.002090,160.002197 126.743408,160.058334 
	C126.308357,160.404495 126.131989,160.694504 125.955612,160.984512 
	C125.955612,160.984512 126.002083,161.002213 125.743393,161.058334 
	C125.308327,161.404480 125.131958,161.694504 124.955589,161.984528 
	C124.955589,161.984528 125.002090,162.002213 124.743408,162.058350 
	C124.308334,162.404495 124.131943,162.694534 123.955551,162.984558 
	C123.955551,162.984558 124.002090,163.002228 123.743423,163.058350 
	C123.308365,163.404510 123.131966,163.694534 122.955551,163.984558 
	C122.955551,163.984558 123.002083,164.002213 122.743416,164.058350 
	C122.308365,164.404495 122.131981,164.694519 121.955597,164.984543 
	C121.955589,164.984543 122.002090,165.002197 121.743408,165.058334 
	C121.308357,165.404495 121.131989,165.694504 120.955612,165.984528 
	C120.955612,165.984528 121.002075,166.002213 120.743393,166.058350 
	C120.308327,166.404510 120.131943,166.694534 119.955559,166.984558 
	C119.955559,166.984558 120.002090,167.002228 119.743454,167.058411 
	C119.308357,167.404617 119.131905,167.694626 118.955452,167.984634 
	C118.955452,167.984634 119.002075,168.002274 118.743584,168.058594 
	C118.308510,168.404877 118.131920,168.694839 117.955338,168.984787 
	C117.955338,168.984787 118.002098,169.002319 117.743866,169.058960 
	C117.308838,169.405396 117.132042,169.695206 116.955246,169.985016 
	C116.955246,169.985016 117.002151,170.002396 116.744324,170.059494 
	C116.309387,170.406158 116.132278,170.695709 115.955170,170.985275 
	C115.955170,170.985275 116.002228,171.002502 115.744873,171.060181 
	C115.310059,171.407104 115.132591,171.696335 114.955124,171.985580 
	C114.955124,171.985580 115.002357,172.002609 114.745438,172.060806 
	C114.310707,172.407928 114.132904,172.696869 113.955109,172.985794 
	C113.955109,172.985794 114.002411,173.002640 113.745781,173.061218 
	C113.311134,173.408478 113.133125,173.697189 112.955109,173.985901 
	C112.955116,173.985901 113.002464,174.002640 112.745987,174.061401 
	C112.311394,174.408737 112.133270,174.697327 111.955154,174.985916 
	C111.955147,174.985916 112.002495,175.002640 111.746078,175.061493 
	C111.311508,175.408844 111.133354,175.697357 110.955215,175.985870 
	C110.955215,175.985870 111.002502,176.002594 110.746109,176.061523 
	C110.311577,176.408890 110.133430,176.697342 109.955292,176.985794 
	C109.955292,176.985794 110.002495,177.002579 109.746117,177.061554 
	C109.311607,177.408920 109.133476,177.697327 108.955353,177.985718 
	C108.955353,177.985718 109.002464,178.002548 108.746117,178.061600 
	C108.311638,178.408997 108.133514,178.697342 107.955383,178.985672 
	C107.955376,178.985672 108.002419,179.002548 107.746101,179.061646 
	C107.311646,179.409042 107.133514,179.697357 106.955383,179.985657 
	C106.955383,179.985657 107.002419,180.002563 106.746109,180.061676 
	C106.311668,180.409073 106.133530,180.697372 105.955399,180.985657 
	C105.955391,180.985657 106.002419,181.002548 105.746101,181.061646 
	C105.311653,181.409042 105.133522,181.697357 104.955399,181.985657 
	C104.955399,181.985657 105.002449,182.002533 104.746109,182.061615 
	C104.311646,182.409012 104.133522,182.697327 103.955399,182.985657 
	C103.955406,182.985657 104.002449,183.002548 103.746109,183.061630 
	C103.311638,183.409027 103.133522,183.697342 102.955399,183.985657 
	C102.955399,183.985657 103.002434,184.002548 102.746109,184.061661 
	C102.311646,184.409058 102.133514,184.697357 101.955383,184.985657 
	C101.955391,184.985657 102.002419,185.002548 101.746094,185.061661 
	C101.311646,185.409073 101.133514,185.697357 100.955383,185.985657 
	C100.955391,185.985657 101.002419,186.002548 100.746101,186.061646 
	C100.311661,186.409042 100.133530,186.697357 99.955399,186.985657 
	C99.955399,186.985657 100.002449,187.002533 99.746109,187.061615 
	C99.311646,187.409027 99.133530,187.697342 98.955414,187.985657 
	C98.955406,187.985657 99.002449,188.002548 98.746117,188.061646 
	C98.311653,188.409058 98.133522,188.697372 97.955391,188.985672 
	C97.955391,188.985672 98.002411,189.002563 97.746170,189.061768 
	C97.311729,189.409225 97.133545,189.697479 96.955353,189.985748 
	C96.955360,189.985748 97.002419,190.002625 96.746353,190.062027 
	C96.311958,190.409592 96.133621,190.697769 95.955292,190.985931 
	C95.955292,190.985931 96.002472,191.002716 95.746735,191.062500 
	C95.312393,191.410263 95.133797,191.698242 94.955200,191.986221 
	C94.955208,191.986221 95.002556,192.002823 94.747299,192.063171 
	C94.313065,192.411194 94.134087,192.698883 93.955109,192.986572 
	C93.955101,192.986572 94.002678,193.002945 93.747955,193.063904 
	C93.313843,193.412201 93.134468,193.699524 92.955093,193.986832 
	C92.955086,193.986832 93.002769,194.003052 92.748428,194.064484 
	C92.314423,194.412933 92.134766,194.699966 91.955109,194.986984 
	C91.955109,194.986984 92.002846,195.003082 91.748726,195.064819 
	C91.314789,195.413391 91.134972,195.700241 90.955154,195.987076 
	C90.955147,195.987076 91.002892,196.003113 90.748871,196.064972 
	C90.314957,196.413605 90.135056,196.700363 89.955154,196.987106 
	C89.955154,196.987106 90.002930,197.003128 89.748932,197.065033 
	C89.315010,197.413666 89.135078,197.700394 88.955154,197.987122 
	C88.955147,197.987122 89.002945,198.003128 88.748940,198.065002 
	C88.315002,198.413635 88.135071,198.700378 87.955139,198.987106 
	C87.955139,198.987106 88.002922,199.003113 87.748909,199.064987 
	C87.314980,199.413605 87.135063,199.700348 86.955147,199.987091 
	C86.955147,199.987091 87.002907,200.003113 86.748901,200.065002 
	C86.314995,200.413635 86.135086,200.700378 85.955170,200.987106 
	C85.955170,200.987106 86.002922,201.003128 85.748962,201.065063 
	C85.315079,201.413727 85.135147,201.700424 84.955215,201.987122 
	C84.955215,201.987122 85.002922,202.003128 84.749039,202.065155 
	C84.315201,202.413834 84.135246,202.700470 83.955299,202.987122 
	C83.955299,202.987122 84.002937,203.003128 83.749115,203.065247 
	C83.315331,203.413925 83.135384,203.700500 82.955437,203.987076 
	C82.955437,203.987076 83.002922,204.003113 82.749146,204.065308 
	C82.315445,204.413986 82.135529,204.700485 81.955612,204.986984 
	C81.955612,204.986984 82.002922,205.003098 81.749153,205.065353 
	C81.315506,205.414032 81.135628,205.700455 80.955750,205.986877 
	C80.955750,205.986877 81.002892,206.003098 80.749130,206.065399 
	C80.315529,206.414062 80.135681,206.700439 79.955833,206.986816 
	C79.955833,206.986816 80.002869,207.003082 79.749115,207.065414 
	C79.315521,207.414093 79.135689,207.700439 78.955856,207.986801 
	C78.955864,207.986801 79.002869,208.003082 78.749115,208.065430 
	C78.315536,208.414108 78.135704,208.700455 77.955872,208.986786 
	C77.955872,208.986786 78.002853,209.003082 77.749092,209.065430 
	C77.315506,209.414108 77.135681,209.700455 76.955856,209.986801 
	C76.955856,209.986801 77.002853,210.003113 76.749115,210.065460 
	C76.315514,210.414154 76.135658,210.700500 75.955811,210.986832 
	C75.955811,210.986832 76.002861,211.003113 75.749207,211.065582 
	C75.315598,211.414368 75.135643,211.700668 74.955688,211.986969 
	C74.955688,211.986969 75.002861,212.003189 74.749443,212.065933 
	C74.315834,212.414871 74.135643,212.701050 73.955444,212.987244 
	C73.955444,212.987244 74.002922,213.003311 73.749931,213.066544 
	C73.316330,213.415741 73.135727,213.701706 72.955116,213.987671 
	C72.955116,213.987671 73.003029,214.003448 72.750648,214.067383 
	C72.317085,214.416946 72.135895,214.702576 71.954712,214.988220 
	C71.954712,214.988220 72.003212,215.003601 71.751495,215.068237 
	C71.318016,215.418106 71.136253,215.703354 70.954483,215.988586 
	C70.954483,215.988586 71.003387,216.003662 70.752068,216.068756 
	C70.318611,216.418823 70.136482,216.703812 69.954346,216.988800 
	C69.954346,216.988800 70.003510,216.971191 69.681633,217.078720 
	C68.222107,218.443283 67.084457,219.700302 65.946808,220.957321 
	C65.946800,220.957321 65.971207,221.003571 65.736389,221.069122 
	C65.319153,221.419434 65.136726,221.704193 64.954300,221.988953 
	C64.954300,221.988953 65.003586,221.971405 64.681870,222.079071 
	C63.222385,223.443588 62.084625,224.700439 60.946861,225.957291 
	C60.946861,225.957291 60.971130,226.003540 60.736267,226.069031 
	C60.319054,226.419296 60.136700,226.704071 59.954353,226.988861 
	C59.954353,226.988861 60.003548,226.971207 59.681557,227.078552 
	C58.221840,228.442825 57.084118,229.699753 55.946396,230.956680 
	C55.946400,230.956680 55.970455,231.003265 55.735115,231.067810 
	C55.317875,231.417740 55.135975,231.703110 54.954067,231.988480 
	C54.954063,231.988480 54.995304,231.937439 54.970459,231.915939 
z"/>
<path fill="#FFA610" opacity="1.000000" stroke="none" 
	d="
M65.007706,148.401703 
	C67.667236,131.888092 70.325523,115.773903 72.988754,99.660530 
	C73.257271,98.035889 73.555771,96.416206 73.919907,94.396957 
	C77.236427,95.470970 79.461136,94.138588 81.810989,91.783363 
	C92.217041,81.353546 102.856117,71.155861 113.230217,60.695015 
	C114.491539,59.423153 114.660706,57.068199 115.617661,55.123352 
	C119.904305,62.749546 123.909332,70.467583 127.988335,78.526764 
	C121.291061,89.827980 115.618561,101.697853 107.480507,111.526192 
	C96.406792,124.899918 83.495712,136.759705 71.237495,149.134918 
	C69.855583,150.530045 67.600662,151.060379 65.370804,151.995270 
	C64.996643,150.932999 65.002243,149.867172 65.007706,148.401703 
z"/>
<path fill="#FEA40D" opacity="1.000000" stroke="none" 
	d="
M181.391785,103.001343 
	C181.727280,103.543068 181.772568,103.948204 181.851395,104.657715 
	C181.884949,104.962105 181.920151,104.990540 181.707062,105.068451 
	C181.202835,105.345650 181.029907,105.619568 180.975174,105.968109 
	C180.975174,105.968109 180.998184,105.997505 180.750153,106.074081 
	C180.208725,106.347397 180.033173,106.620033 179.975464,106.968544 
	C179.975464,106.968544 179.998169,106.997986 179.750397,107.074554 
	C179.209488,107.347984 179.033722,107.620537 178.975342,107.968781 
	C178.975342,107.968781 178.998291,107.998169 178.750641,108.074783 
	C178.209915,108.348267 178.034012,108.620766 177.975281,108.968895 
	C177.975281,108.968895 177.998779,108.998352 177.750977,109.074921 
	C177.210083,109.348312 177.034119,109.620773 176.975281,109.968895 
	C176.975281,109.968895 176.998779,109.998367 176.750977,110.074936 
	C176.210052,110.348305 176.034103,110.620766 175.975296,110.968887 
	C175.975296,110.968887 175.998734,110.998360 175.750946,111.074944 
	C175.210083,111.348335 175.034119,111.620796 174.975281,111.968903 
	C174.975281,111.968903 174.998779,111.998352 174.751007,112.074951 
	C174.210129,112.348381 174.034149,112.620834 173.975266,112.968933 
	C173.975266,112.968933 173.998779,112.998428 173.751007,113.075012 
	C173.210129,113.348389 173.034134,113.620834 172.975266,113.968933 
	C172.975266,113.968933 172.998779,113.998428 172.751007,114.074989 
	C172.210098,114.348328 172.034119,114.620781 171.975296,114.968903 
	C171.975296,114.968903 171.998779,114.998390 171.750977,115.074951 
	C171.210052,115.348297 171.034088,115.620750 170.975311,115.968880 
	C170.975311,115.968880 170.998596,115.998314 170.750870,116.074883 
	C170.210052,116.348259 170.034134,116.620728 169.975372,116.968857 
	C169.975372,116.968857 169.998199,116.998169 169.750641,117.074783 
	C169.210022,117.348213 169.034149,117.620689 168.975464,117.968811 
	C168.975464,117.968811 168.998169,117.998169 168.750580,118.074715 
	C168.209869,118.348022 168.034073,118.620506 167.975632,118.968712 
	C167.975632,118.968712 167.998169,118.998169 167.750488,119.074631 
	C167.209595,119.347809 167.033936,119.620308 166.975815,119.968590 
	C166.975815,119.968590 166.998169,119.997864 166.750397,120.074417 
	C166.209320,120.347626 166.033768,120.620125 165.975967,120.968483 
	C165.975967,120.968483 165.976517,120.963921 165.687897,120.947685 
	C165.031342,120.989365 164.663422,121.047272 163.890320,121.078430 
	C159.019272,121.252228 157.166031,118.098862 155.393646,114.794899 
	C150.693466,106.033134 146.177017,97.161781 141.135437,88.600227 
	C139.399918,85.652985 136.328171,83.492592 133.866837,80.972755 
	C137.911804,72.990494 141.768402,64.904846 146.071945,57.064514 
	C148.679260,52.314388 153.762177,52.847794 156.511429,57.997238 
	C163.232285,70.585739 169.798508,83.256790 176.520187,95.844856 
	C177.831268,98.300179 179.563553,100.530594 181.391785,103.001343 
z"/>
<path fill="#F4950E" opacity="1.000000" stroke="none" 
	d="
M133.631195,81.127228 
	C136.328171,83.492592 139.399918,85.652985 141.135437,88.600227 
	C146.177017,97.161781 150.693466,106.033134 155.393646,114.794899 
	C157.166031,118.098862 159.019272,121.252228 163.826233,121.390900 
	C164.112625,122.152397 164.057953,122.574669 164.003296,122.996948 
	C162.769562,124.130844 161.535828,125.264748 159.857697,126.740532 
	C158.728302,127.407097 158.043304,127.731773 157.358307,128.056458 
	C155.732574,126.017990 153.756790,124.168259 152.539093,121.909782 
	C145.695129,109.216240 139.033737,96.424271 132.161133,83.359085 
	C132.473328,82.462097 132.934448,81.871902 133.631195,81.127228 
z"/>
<path fill="#FFCB2E" opacity="1.000000" stroke="none" 
	d="
M215.773193,72.171005 
	C215.809265,72.315048 215.608429,72.544983 215.180206,72.873566 
	C215.134476,72.725502 215.328964,72.487068 215.773193,72.171005 
z"/>
<path fill="#FFCC31" opacity="1.000000" stroke="none" 
	d="
M139.527863,146.993561 
	C144.894470,141.393097 150.605515,135.767654 156.642731,130.051117 
	C151.270035,135.629547 145.571182,141.299057 139.527863,146.993561 
z"/>
<path fill="#FFD34D" opacity="1.000000" stroke="none" 
	d="
M61.319199,225.952057 
	C62.084625,224.700439 63.222385,223.443588 64.658752,222.066803 
	C63.868748,223.280182 62.780140,224.613510 61.319199,225.952057 
z"/>
<path fill="#FFD34D" opacity="1.000000" stroke="none" 
	d="
M66.319153,220.952087 
	C67.084457,219.700302 68.222107,218.443283 69.658493,217.066605 
	C68.868652,218.280258 67.780075,219.613556 66.319153,220.952087 
z"/>
<path fill="#FFD34D" opacity="1.000000" stroke="none" 
	d="
M56.318764,230.951614 
	C57.084118,229.699753 58.221840,228.442825 59.658405,227.066406 
	C58.868542,228.280121 57.779835,229.613327 56.318764,230.951614 
z"/>
<path fill="#FFCC31" opacity="1.000000" stroke="none" 
	d="
M157.268829,128.370316 
	C158.043304,127.731773 158.728302,127.407097 159.694397,127.011116 
	C159.192230,127.912704 158.408981,128.885605 157.292007,129.913757 
	C157.031998,129.540741 157.105682,129.112457 157.268829,128.370316 
z"/>
<path fill="#FCC549" opacity="1.000000" stroke="none" 
	d="
M164.255295,122.852921 
	C164.057953,122.574669 164.112625,122.152397 164.231400,121.417648 
	C164.663422,121.047272 165.031342,120.989365 165.680389,120.942078 
	C165.476776,121.538094 164.992035,122.123497 164.255295,122.852921 
z"/>
<path fill="#FFD34D" opacity="1.000000" stroke="none" 
	d="
M138.156952,148.822388 
	C138.163437,148.507553 138.378769,148.028168 138.816650,147.395844 
	C138.814728,147.714539 138.590271,148.186188 138.156952,148.822388 
z"/>
<path fill="#FFD34D" opacity="1.000000" stroke="none" 
	d="
M99.162849,187.852295 
	C99.133530,187.697342 99.311646,187.409027 99.737724,187.038086 
	C99.835228,187.254028 99.630096,187.508514 99.162849,187.852295 
z"/>
<path fill="#FFD34D" opacity="1.000000" stroke="none" 
	d="
M90.162697,196.853256 
	C90.135056,196.700363 90.314957,196.413605 90.740982,196.041061 
	C90.835838,196.253876 90.630219,196.508575 90.162697,196.853256 
z"/>
<path fill="#FFD34D" opacity="1.000000" stroke="none" 
	d="
M91.162689,195.853241 
	C91.134972,195.700241 91.314789,195.413391 91.740814,195.040894 
	C91.835793,195.253845 91.630188,195.508575 91.162689,195.853241 
z"/>
<path fill="#FFD34D" opacity="1.000000" stroke="none" 
	d="
M92.162643,194.853180 
	C92.134766,194.699966 92.314423,194.412933 92.740479,194.040573 
	C92.835686,194.253830 92.630112,194.508530 92.162643,194.853180 
z"/>
<path fill="#FFD34D" opacity="1.000000" stroke="none" 
	d="
M60.162132,226.854355 
	C60.136700,226.704071 60.319054,226.419296 60.745174,226.044479 
	C60.836578,226.253235 60.630238,226.508362 60.162132,226.854355 
z"/>
<path fill="#FFD34D" opacity="1.000000" stroke="none" 
	d="
M93.162590,193.853058 
	C93.134468,193.699524 93.313843,193.412201 93.739929,193.040070 
	C93.835541,193.253845 93.630028,193.508530 93.162590,193.853058 
z"/>
<path fill="#FFD34D" opacity="1.000000" stroke="none" 
	d="
M94.162575,192.852890 
	C94.134087,192.698883 94.313065,192.411194 94.739166,192.039444 
	C94.835350,192.253952 94.629944,192.508560 94.162575,192.852890 
z"/>
<path fill="#FFD34D" opacity="1.000000" stroke="none" 
	d="
M95.162636,191.852646 
	C95.133797,191.698242 95.312393,191.410263 95.738487,191.038864 
	C95.835220,191.253983 95.629913,191.508530 95.162636,191.852646 
z"/>
<path fill="#FFD34D" opacity="1.000000" stroke="none" 
	d="
M96.162727,190.852478 
	C96.133621,190.697769 96.311958,190.409592 96.738045,190.038452 
	C96.835213,190.254044 96.629997,190.508545 96.162727,190.852478 
z"/>
<path fill="#FFD34D" opacity="1.000000" stroke="none" 
	d="
M97.162796,189.852356 
	C97.133545,189.697479 97.311729,189.409225 97.737816,189.038239 
	C97.835220,189.254059 97.630066,189.508545 97.162796,189.852356 
z"/>
<path fill="#FFD34D" opacity="1.000000" stroke="none" 
	d="
M98.162842,188.852325 
	C98.133522,188.697372 98.311653,188.409058 98.737732,188.038116 
	C98.835243,188.254059 98.630119,188.508560 98.162842,188.852325 
z"/>
<path fill="#FFD34D" opacity="1.000000" stroke="none" 
	d="
M88.162689,198.853241 
	C88.135071,198.700378 88.315002,198.413635 88.741043,198.041077 
	C88.835854,198.253830 88.630219,198.508545 88.162689,198.853241 
z"/>
<path fill="#FFD34D" opacity="1.000000" stroke="none" 
	d="
M100.162827,186.852295 
	C100.133530,186.697357 100.311661,186.409042 100.737732,186.038116 
	C100.835197,186.254013 100.630058,186.508499 100.162827,186.852295 
z"/>
<path fill="#FFD34D" opacity="1.000000" stroke="none" 
	d="
M55.161896,231.854034 
	C55.135975,231.703110 55.317875,231.417740 55.744209,231.043228 
	C55.836376,231.252975 55.630070,231.508133 55.161896,231.854034 
z"/>
<path fill="#FFD34D" opacity="1.000000" stroke="none" 
	d="
M101.162811,185.852264 
	C101.133514,185.697357 101.311646,185.409073 101.737732,185.038116 
	C101.835182,185.253998 101.630035,185.508469 101.162811,185.852264 
z"/>
<path fill="#FFD34D" opacity="1.000000" stroke="none" 
	d="
M102.162834,184.852295 
	C102.133514,184.697357 102.311646,184.409058 102.737732,184.038116 
	C102.835213,184.254028 102.630074,184.508514 102.162834,184.852295 
z"/>
<path fill="#FFD34D" opacity="1.000000" stroke="none" 
	d="
M103.162857,183.852310 
	C103.133522,183.697342 103.311638,183.409027 103.737717,183.038086 
	C103.835236,183.254044 103.630112,183.508530 103.162857,183.852310 
z"/>
<path fill="#FFD34D" opacity="1.000000" stroke="none" 
	d="
M104.162842,182.852295 
	C104.133522,182.697327 104.311646,182.409012 104.737724,182.038086 
	C104.835220,182.254013 104.630089,182.508499 104.162842,182.852295 
z"/>
<path fill="#FFD34D" opacity="1.000000" stroke="none" 
	d="
M105.162827,181.852295 
	C105.133522,181.697357 105.311653,181.409042 105.737732,181.038116 
	C105.835197,181.254013 105.630058,181.508499 105.162827,181.852295 
z"/>
<path fill="#FFD34D" opacity="1.000000" stroke="none" 
	d="
M106.162827,180.852295 
	C106.133530,180.697372 106.311668,180.409073 106.737747,180.038116 
	C106.835190,180.254013 106.630043,180.508499 106.162827,180.852295 
z"/>
<path fill="#FFD34D" opacity="1.000000" stroke="none" 
	d="
M80.163406,206.853333 
	C80.135681,206.700439 80.315529,206.414062 80.741150,206.041779 
	C80.836212,206.254532 80.630898,206.509201 80.163406,206.853333 
z"/>
<path fill="#FFD34D" opacity="1.000000" stroke="none" 
	d="
M76.163376,210.853363 
	C76.135658,210.700500 76.315514,210.414154 76.741104,210.041901 
	C76.836227,210.254715 76.630928,210.509354 76.163376,210.853363 
z"/>
<path fill="#FFD34D" opacity="1.000000" stroke="none" 
	d="
M77.163437,209.853363 
	C77.135681,209.700455 77.315506,209.414108 77.741081,209.041885 
	C77.836235,209.254715 77.630966,209.509354 77.163437,209.853363 
z"/>
<path fill="#FFD34D" opacity="1.000000" stroke="none" 
	d="
M78.163452,208.853348 
	C78.135704,208.700455 78.315536,208.414108 78.741104,208.041870 
	C78.836235,208.254700 78.630966,208.509338 78.163452,208.853348 
z"/>
<path fill="#FFD34D" opacity="1.000000" stroke="none" 
	d="
M74.163040,212.853607 
	C74.135643,212.701050 74.315834,212.414871 74.741531,212.042267 
	C74.836151,212.254593 74.630684,212.509293 74.163040,212.853607 
z"/>
<path fill="#FFD34D" opacity="1.000000" stroke="none" 
	d="
M73.162720,213.853821 
	C73.135727,213.701706 73.316330,213.415741 73.742134,213.042725 
	C73.836105,213.254395 73.630432,213.509155 73.162720,213.853821 
z"/>
<path fill="#FFD34D" opacity="1.000000" stroke="none" 
	d="
M72.162354,214.854095 
	C72.135895,214.702576 72.317085,214.416946 72.743011,214.043335 
	C72.836121,214.254089 72.630196,214.508957 72.162354,214.854095 
z"/>
<path fill="#FFD34D" opacity="1.000000" stroke="none" 
	d="
M71.162186,215.854248 
	C71.136253,215.703354 71.318016,215.418106 71.744049,215.043915 
	C71.836273,215.253693 71.630127,215.508682 71.162186,215.854248 
z"/>
<path fill="#FFD34D" opacity="1.000000" stroke="none" 
	d="
M70.162094,216.854340 
	C70.136482,216.703812 70.318611,216.418823 70.744705,216.044250 
	C70.836426,216.253448 70.630150,216.508514 70.162094,216.854340 
z"/>
<path fill="#FFD34D" opacity="1.000000" stroke="none" 
	d="
M79.163437,207.853333 
	C79.135689,207.700439 79.315521,207.414093 79.741104,207.041840 
	C79.836227,207.254654 79.630943,207.509293 79.163437,207.853333 
z"/>
<path fill="#FFD34D" opacity="1.000000" stroke="none" 
	d="
M89.162704,197.853271 
	C89.135078,197.700394 89.315010,197.413666 89.741043,197.041107 
	C89.835846,197.253845 89.630211,197.508560 89.162704,197.853271 
z"/>
<path fill="#FFD34D" opacity="1.000000" stroke="none" 
	d="
M81.163315,205.853317 
	C81.135628,205.700455 81.315506,205.414032 81.741196,205.041656 
	C81.836159,205.254364 81.630791,205.509048 81.163315,205.853317 
z"/>
<path fill="#FFD34D" opacity="1.000000" stroke="none" 
	d="
M82.163162,204.853302 
	C82.135529,204.700485 82.315445,204.413986 82.741226,204.041519 
	C82.836075,204.254166 82.630615,204.508850 82.163162,204.853302 
z"/>
<path fill="#FFD34D" opacity="1.000000" stroke="none" 
	d="
M83.162987,203.853317 
	C83.135384,203.700500 83.315331,203.413925 83.741211,203.041382 
	C83.835983,203.253998 83.630447,203.508713 83.162987,203.853317 
z"/>
<path fill="#FFD34D" opacity="1.000000" stroke="none" 
	d="
M84.162842,202.853302 
	C84.135246,202.700470 84.315201,202.413834 84.741150,202.041260 
	C84.835907,202.253922 84.630325,202.508636 84.162842,202.853302 
z"/>
<path fill="#FFD34D" opacity="1.000000" stroke="none" 
	d="
M85.162758,201.853271 
	C85.135147,201.700424 85.315079,201.413727 85.741074,201.041153 
	C85.835846,201.253860 85.630234,201.508575 85.162758,201.853271 
z"/>
<path fill="#FFD34D" opacity="1.000000" stroke="none" 
	d="
M65.162094,221.854401 
	C65.136726,221.704193 65.319153,221.419434 65.745285,221.044556 
	C65.836601,221.253204 65.630234,221.508362 65.162094,221.854401 
z"/>
<path fill="#FFD34D" opacity="1.000000" stroke="none" 
	d="
M86.162727,200.853271 
	C86.135086,200.700378 86.314995,200.413635 86.741013,200.041077 
	C86.835854,200.253860 86.630234,200.508591 86.162727,200.853271 
z"/>
<path fill="#FFD34D" opacity="1.000000" stroke="none" 
	d="
M87.162704,199.853256 
	C87.135063,199.700348 87.314980,199.413605 87.741013,199.041046 
	C87.835861,199.253845 87.630234,199.508575 87.162704,199.853256 
z"/>
<path fill="#FFD34D" opacity="1.000000" stroke="none" 
	d="
M75.163269,211.853455 
	C75.135643,211.700668 75.315598,211.414368 75.741226,211.042007 
	C75.836197,211.254669 75.630852,211.509338 75.163269,211.853455 
z"/>
<path fill="#FCC549" opacity="1.000000" stroke="none" 
	d="
M171.175217,115.840096 
	C171.034088,115.620750 171.210052,115.348297 171.736084,115.063477 
	C171.823441,115.263039 171.625504,115.508331 171.175217,115.840096 
z"/>
<path fill="#FFD34D" opacity="1.000000" stroke="none" 
	d="
M132.162689,154.851257 
	C132.131973,154.694519 132.308365,154.404495 132.734665,154.035049 
	C132.834091,154.253632 132.629166,154.507751 132.162689,154.851257 
z"/>
<path fill="#FFD34D" opacity="1.000000" stroke="none" 
	d="
M133.162659,153.851257 
	C133.131943,153.694519 133.308334,153.404495 133.734650,153.035049 
	C133.834076,153.253662 133.629150,153.507767 133.162659,153.851257 
z"/>
<path fill="#FFD34D" opacity="1.000000" stroke="none" 
	d="
M134.162643,152.851273 
	C134.131866,152.694458 134.308197,152.404373 134.734497,152.035004 
	C134.834045,152.253754 134.629135,152.507843 134.162643,152.851273 
z"/>
<path fill="#FFD34D" opacity="1.000000" stroke="none" 
	d="
M135.162689,151.851227 
	C135.131760,151.694214 135.307907,151.403992 135.734177,151.034805 
	C135.833954,151.253860 135.629120,151.507919 135.162689,151.851227 
z"/>
<path fill="#FFD34D" opacity="1.000000" stroke="none" 
	d="
M136.162766,150.851135 
	C136.131546,150.693756 136.307388,150.403275 136.733612,150.034363 
	C136.833862,150.253967 136.629135,150.507980 136.162766,150.851135 
z"/>
<path fill="#FFD34D" opacity="1.000000" stroke="none" 
	d="
M137.162796,149.850952 
	C137.131210,149.693085 137.306625,149.402206 137.732849,149.033691 
	C137.833679,149.254059 137.629059,149.508011 137.162796,149.850952 
z"/>
<path fill="#FCC549" opacity="1.000000" stroke="none" 
	d="
M166.175980,120.840164 
	C166.033768,120.620125 166.209320,120.347626 166.735626,120.063454 
	C166.823944,120.263824 166.626404,120.509132 166.175980,120.840164 
z"/>
<path fill="#FCC549" opacity="1.000000" stroke="none" 
	d="
M167.175812,119.840141 
	C167.033936,119.620308 167.209595,119.347809 167.735779,119.063416 
	C167.823853,119.263573 167.626205,119.508888 167.175812,119.840141 
z"/>
<path fill="#FCC549" opacity="1.000000" stroke="none" 
	d="
M168.175598,118.840118 
	C168.034073,118.620506 168.209869,118.348022 168.735931,118.063423 
	C168.823715,118.263336 168.625946,118.508644 168.175598,118.840118 
z"/>
<path fill="#FCC549" opacity="1.000000" stroke="none" 
	d="
M169.175400,117.840118 
	C169.034149,117.620689 169.210022,117.348213 169.735992,117.063454 
	C169.823563,117.263176 169.625702,117.508476 169.175400,117.840118 
z"/>
<path fill="#FCC549" opacity="1.000000" stroke="none" 
	d="
M170.175293,116.840103 
	C170.034134,116.620728 170.210052,116.348259 170.736038,116.063461 
	C170.823471,116.263077 170.625565,116.508369 170.175293,116.840103 
z"/>
<path fill="#FFD34D" opacity="1.000000" stroke="none" 
	d="
M131.162720,155.851257 
	C131.131989,155.694489 131.308365,155.404465 131.734650,155.035065 
	C131.834106,155.253693 131.629196,155.507797 131.162720,155.851257 
z"/>
<path fill="#FCC549" opacity="1.000000" stroke="none" 
	d="
M172.175201,114.840103 
	C172.034119,114.620781 172.210098,114.348328 172.736115,114.063492 
	C172.823471,114.263039 172.625504,114.508331 172.175201,114.840103 
z"/>
<path fill="#FCC549" opacity="1.000000" stroke="none" 
	d="
M173.175171,113.840134 
	C173.034134,113.620834 173.210129,113.348389 173.736115,113.063507 
	C173.823456,113.263039 173.625488,113.508347 173.175171,113.840134 
z"/>
<path fill="#FCC549" opacity="1.000000" stroke="none" 
	d="
M174.175186,112.840141 
	C174.034149,112.620834 174.210129,112.348381 174.736099,112.063507 
	C174.823425,112.263046 174.625473,112.508347 174.175186,112.840141 
z"/>
<path fill="#FCC549" opacity="1.000000" stroke="none" 
	d="
M175.175201,111.840118 
	C175.034119,111.620796 175.210083,111.348335 175.736053,111.063492 
	C175.823456,111.263069 175.625504,111.508369 175.175201,111.840118 
z"/>
<path fill="#FCC549" opacity="1.000000" stroke="none" 
	d="
M176.175217,110.840103 
	C176.034103,110.620766 176.210052,110.348305 176.736069,110.063469 
	C176.823441,110.263046 176.625504,110.508339 176.175217,110.840103 
z"/>
<path fill="#FCC549" opacity="1.000000" stroke="none" 
	d="
M177.175186,109.840111 
	C177.034119,109.620773 177.210083,109.348312 177.736069,109.063477 
	C177.823441,109.263054 177.625473,109.508347 177.175186,109.840111 
z"/>
<path fill="#FCC549" opacity="1.000000" stroke="none" 
	d="
M178.175171,108.840103 
	C178.034012,108.620766 178.209915,108.348267 178.735931,108.063461 
	C178.823349,108.263107 178.625412,108.508369 178.175171,108.840103 
z"/>
<path fill="#FCC549" opacity="1.000000" stroke="none" 
	d="
M179.175171,107.840019 
	C179.033722,107.620537 179.209488,107.347984 179.735626,107.063393 
	C179.823120,107.263138 179.625244,107.508331 179.175171,107.840019 
z"/>
<path fill="#FCC549" opacity="1.000000" stroke="none" 
	d="
M180.175201,106.839836 
	C180.033173,106.620033 180.208725,106.347397 180.735245,106.063232 
	C180.822937,106.263184 180.625122,106.508286 180.175201,106.839836 
z"/>
<path fill="#FCC549" opacity="1.000000" stroke="none" 
	d="
M181.174072,105.840324 
	C181.029907,105.619568 181.202835,105.345650 181.728455,105.063583 
	C181.819077,105.267281 181.622421,105.511185 181.174072,105.840324 
z"/>
<path fill="#FFD34D" opacity="1.000000" stroke="none" 
	d="
M119.162567,167.851318 
	C119.131905,167.694626 119.308357,167.404617 119.734695,167.035126 
	C119.834091,167.253708 119.629120,167.507828 119.162567,167.851318 
z"/>
<path fill="#FFD34D" opacity="1.000000" stroke="none" 
	d="
M108.162834,178.852295 
	C108.133514,178.697342 108.311638,178.408997 108.737747,178.038025 
	C108.835228,178.253967 108.630081,178.508469 108.162834,178.852295 
z"/>
<path fill="#FFD34D" opacity="1.000000" stroke="none" 
	d="
M109.162781,177.852280 
	C109.133476,177.697327 109.311607,177.408920 109.737770,177.037933 
	C109.835175,177.253860 109.629974,177.508347 109.162781,177.852280 
z"/>
<path fill="#FFD34D" opacity="1.000000" stroke="none" 
	d="
M110.162674,176.852264 
	C110.133430,176.697342 110.311577,176.408890 110.737801,176.037857 
	C110.835068,176.253693 110.629799,176.508179 110.162674,176.852264 
z"/>
<path fill="#FFD34D" opacity="1.000000" stroke="none" 
	d="
M111.162552,175.852234 
	C111.133354,175.697357 111.311508,175.408844 111.737808,175.037781 
	C111.834930,175.253555 111.629585,175.507996 111.162552,175.852234 
z"/>
<path fill="#FFD34D" opacity="1.000000" stroke="none" 
	d="
M112.162476,174.852234 
	C112.133270,174.697327 112.311394,174.408737 112.737732,174.037689 
	C112.834854,174.253494 112.629471,174.507950 112.162476,174.852234 
z"/>
<path fill="#FFD34D" opacity="1.000000" stroke="none" 
	d="
M113.162407,173.852203 
	C113.133125,173.697189 113.311134,173.408478 113.737495,173.037521 
	C113.834755,173.253510 113.629372,173.507935 113.162407,173.852203 
z"/>
<path fill="#FFD34D" opacity="1.000000" stroke="none" 
	d="
M114.162376,172.852142 
	C114.132904,172.696869 114.310707,172.407928 114.737076,172.037140 
	C114.834633,172.253525 114.629295,172.507935 114.162376,172.852142 
z"/>
<path fill="#FFD34D" opacity="1.000000" stroke="none" 
	d="
M115.162361,171.851974 
	C115.132591,171.696335 115.310059,171.407104 115.736435,171.036591 
	C115.834450,171.253540 115.629204,171.507889 115.162361,171.851974 
z"/>
<path fill="#FFD34D" opacity="1.000000" stroke="none" 
	d="
M116.162369,170.851746 
	C116.132278,170.695709 116.309387,170.406158 116.735771,170.035995 
	C116.834267,170.253555 116.629105,170.507828 116.162369,170.851746 
z"/>
<path fill="#FFD34D" opacity="1.000000" stroke="none" 
	d="
M117.162407,169.851562 
	C117.132042,169.695206 117.308838,169.405396 117.735229,169.035522 
	C117.834145,169.253586 117.629059,169.507797 117.162407,169.851562 
z"/>
<path fill="#FFD34D" opacity="1.000000" stroke="none" 
	d="
M118.162468,168.851410 
	C118.131920,168.694839 118.308510,168.404877 118.734886,168.035248 
	C118.834084,168.253632 118.629059,168.507797 118.162468,168.851410 
z"/>
<path fill="#FFD34D" opacity="1.000000" stroke="none" 
	d="
M107.162827,179.852295 
	C107.133514,179.697357 107.311646,179.409042 107.737747,179.038101 
	C107.835213,179.254013 107.630074,179.508499 107.162827,179.852295 
z"/>
<path fill="#FFD34D" opacity="1.000000" stroke="none" 
	d="
M120.162659,166.851273 
	C120.131943,166.694534 120.308327,166.404510 120.734634,166.035095 
	C120.834099,166.253738 120.629166,166.507828 120.162659,166.851273 
z"/>
<path fill="#FFD34D" opacity="1.000000" stroke="none" 
	d="
M121.162704,165.851257 
	C121.131989,165.694504 121.308357,165.404495 121.734642,165.035065 
	C121.834091,165.253677 121.629173,165.507782 121.162704,165.851257 
z"/>
<path fill="#FFD34D" opacity="1.000000" stroke="none" 
	d="
M122.162689,164.851242 
	C122.131981,164.694519 122.308365,164.404495 122.734665,164.035049 
	C122.834106,164.253647 122.629173,164.507751 122.162689,164.851242 
z"/>
<path fill="#FFD34D" opacity="1.000000" stroke="none" 
	d="
M123.162659,163.851257 
	C123.131966,163.694534 123.308365,163.404510 123.734673,163.035065 
	C123.834106,163.253677 123.629166,163.507797 123.162659,163.851257 
z"/>
<path fill="#FFD34D" opacity="1.000000" stroke="none" 
	d="
M124.162659,162.851273 
	C124.131943,162.694534 124.308334,162.404495 124.734642,162.035065 
	C124.834114,162.253708 124.629181,162.507828 124.162659,162.851273 
z"/>
<path fill="#FFD34D" opacity="1.000000" stroke="none" 
	d="
M125.162689,161.851257 
	C125.131958,161.694504 125.308327,161.404480 125.734619,161.035065 
	C125.834084,161.253723 125.629166,161.507812 125.162689,161.851257 
z"/>
<path fill="#FFD34D" opacity="1.000000" stroke="none" 
	d="
M126.162720,160.851242 
	C126.131989,160.694504 126.308357,160.404495 126.734650,160.035065 
	C126.834099,160.253677 126.629181,160.507782 126.162720,160.851242 
z"/>
<path fill="#FFD34D" opacity="1.000000" stroke="none" 
	d="
M127.162689,159.851242 
	C127.131981,159.694519 127.308365,159.404495 127.734665,159.035049 
	C127.834106,159.253647 127.629173,159.507751 127.162689,159.851242 
z"/>
<path fill="#FFD34D" opacity="1.000000" stroke="none" 
	d="
M128.162659,158.851257 
	C128.131958,158.694534 128.308350,158.404510 128.734680,158.035065 
	C128.834091,158.253647 128.629135,158.507751 128.162659,158.851257 
z"/>
<path fill="#FFD34D" opacity="1.000000" stroke="none" 
	d="
M129.162659,157.851257 
	C129.131927,157.694534 129.308319,157.404510 129.734634,157.035080 
	C129.834061,157.253693 129.629135,157.507797 129.162659,157.851257 
z"/>
<path fill="#FFD34D" opacity="1.000000" stroke="none" 
	d="
M130.162689,156.851257 
	C130.131973,156.694504 130.308334,156.404480 130.734619,156.035065 
	C130.834106,156.253723 130.629196,156.507812 130.162689,156.851257 
z"/>
</svg>